# xmcd
#
# Track frame offsets: 
#        150
#        18932
#        33643
#        50615
#        71470
#        84814
#        99502
#        117583
#        152397
#        163429
#        184458
#        200723
#        221841
#
# Disc length: 3373 seconds
#
# Revision: 0
# Processed by: cddbd v1.5.2PL0 Copyright (c) Steve Scherf et al.
# Submitted via: ExactAudioCopy v1.3
#
DISCID=b90d2b0d
DTITLE=The Rudy Boy Experiment - Volume 2
DYEAR=2011
DGENRE=Blues Rock
TTITLE0=Road Dog
TTITLE1=Unrealitys
TTITLE2=Inaccessible
TTITLE3=I Need A Woman
TTITLE4=Sitting On My Front Porch
TTITLE5=One Way Track
TTITLE6=Long Cool Lover
TTITLE7=Change
TTITLE8=Moon Dancer
TTITLE9=She Gets Me Down
TTITLE10=Fool
TTITLE11=She's Driving My Car
TTITLE12=Change (Revisited)
EXTD=
EXTT0=
EXTT1=
EXTT2=
EXTT3=
EXTT4=
EXTT5=
EXTT6=
EXTT7=
EXTT8=
EXTT9=
EXTT10=
EXTT11=
EXTT12=
PLAYORDER=
